# AST/ASF file generated using VICON BodyLanguage
# -----------------------------------------------
:version 1.10
:name VICON
:units
  mass 1.0
  length 0.45
  angle deg
:documentation
   .ast/.asf automatically generated from VICON data using
   VICON BodyBuilder and BodyLanguage model FoxedUp or BRILLIANT.MOD
:root
   order TX TY TZ RX RY RZ
   axis XYZ
   position 0 0 0  
   orientation 0 0 0 
:bonedata
  begin
     id 1 
     name lhipjoint
     direction 0.543289 -0.788407 0.288535 
     length 2.57127 
     axis 0 0 0  XYZ
  end
  begin
     id 2 
     name lfemur
     direction 0.34202 -0.939693 0  
     length 8.47298  
     axis 0 0 20  XYZ
    dof rx ry rz
    limits (-160.0 20.0)
           (-70.0 70.0)
           (-60.0 70.0)
  end
  begin
     id 3 
     name ltibia
     direction 0.34202 -0.939693 0   
     length 8.13367   
     axis 0 0 20   XYZ
    dof rx
    limits (-10.0 170.0)
  end
  begin
     id 4 
     name lfoot
     direction 0.114037 -0.313314 0.942778   
     length 2.67113   
     axis -90 7.62852e-016 20   XYZ
    dof rx rz
    limits (-45.0 90.0)
           (-70.0 20.0)
  end
  begin
     id 5 
     name ltoes
     direction 1.536e-011 -4.21847e-011 1   
     length 1.32217   
     axis -90 7.62852e-016 20   XYZ
    dof rx
    limits (-90.0 20.0)
  end
  begin
     id 6 
     name rhipjoint
     direction -0.571293 -0.770752 0.282074   
     length 2.63017  
     axis 0 0 0  XYZ 
  end
  begin
     id 7 
     name rfemur
     direction -0.34202 -0.939693 0   
     length 8.60885   
     axis 0 0 -20   XYZ
    dof rx ry rz
    limits (-160.0 20.0)
           (-70.0 70.0)
           (-70.0 60.0)
  end
  begin
     id 8 
     name rtibia
     direction -0.34202 -0.939693 0   
     length 8.07673   
     axis 0 0 -20   XYZ
    dof rx
    limits (-10.0 170.0)
 end
 begin
     id 9 
     name rfoot
     direction -0.121336 -0.333368 0.934956   
     length 2.81602  
     axis -90 -7.62852e-016 -20   XYZ
    dof rx rz
    limits (-45.0 90.0)
           (-20.0 70.0)
  end
  begin
     id 10 
     name rtoes
     direction -1.53491e-011 -4.21808e-011 1   
     length 1.38905   
     axis -90 -7.62852e-016 -20   XYZ
    dof rx
    limits (-90.0 20.0)
  end
  begin
     id 11 
     name lowerback
     direction 0.0136776 0.999869 -0.00861835   
     length 2.14087   
     axis 0 0 0   XYZ
    dof rx ry rz
    limits (-20.0 45.0)
           (-30.0 30.0)
           (-30.0 30.0)
  end
  begin
     id 12 
     name upperback
     direction -0.00789158 0.999804 0.0181308   
     length 2.14151   
     axis 0 0 0   XYZ
    dof rx ry rz
    limits (-20.0 45.0)
           (-30.0 30.0)
           (-30.0 30.0)
  end
  begin
     id 13 
     name thorax
     direction -0.0135231 0.999666 0.0220247   
     length 2.13644   
     axis 0 0 0   XYZ
    dof rx ry rz
    limits (-20.0 45.0)
           (-30.0 30.0)
           (-30.0 30.0)
  end
  begin
     id 14 
     name lowerneck
     direction -0.0392259 0.997317 0.0618018   
     length 1.65045   
     axis 0 0 0   XYZ
    dof rx ry rz
    limits (-20.0 45.0)
           (-30.0 30.0)
           (-30.0 30.0)
  end
  begin
     id 15 
     name upperneck
     direction 0.0765547 0.994276 -0.0745319   
     length 1.66045   
     axis 0 0 0   XYZ
    dof rx ry rz
    limits (-20.0 45.0)
           (-30.0 30.0)
           (-30.0 30.0)
  end
  begin
     id 16
     name head
     direction 0.0241564 0.999031 -0.036785  
     length 1.66594  
     axis 0 0 0   XYZ
    dof rx ry rz
    limits (-20.0 45.0)
           (-30.0 30.0)
           (-30.0 30.0)
  end
  begin
     id 17 
     name lclavicle
     direction 0.967398 0.249018 0.0461573  
     length 3.75176  
     axis 0 0 0   XYZ
    dof ry rz
    limits (-20.0 10.0)
           (0.0 20.0)
  end
  begin
     id 18 
     name lhumerus
     direction 1 -4.48963e-011 -3.05005e-027   
     length 5.93342   
     axis 180 -30 -90   XYZ
    dof rx ry rz
    limits (-60.0 90.0)
           (-90.0 90.0)
           (-90.0 90.0)
  end
  begin
     id 19
     name lradius
     direction 1 -4.48957e-011 1.07006e-026   
     length 3.94763   
     axis 180 -30 -90   XYZ
    dof rx
    limits (-10.0 170.0)
  end
  begin
     id 20
     name lwrist
     direction 1 -4.48978e-011 1.92422e-026   
     length 1.97382   
     axis -1.18182e-014 90 90   XYZ
    dof ry
    limits (-180.0 0.0)
 end
  begin
     id 21 
     name lhand
     direction 1 -4.48931e-011 3.84844e-026   
     length 0.560187   
     axis -2.45563e-014 90 90   XYZ
    dof rx rz
    limits (-90.0 90.0)
           (-45.0 45.0)
  end
  begin
     id 22 
     name lfingers
     direction 1 -4.48952e-011 7.69687e-026   
     length 0.451637   
     axis -4.91126e-014 90 90   XYZ
    dof rx
    limits (0.0 90.0)
  end
  begin
     id 23
     name lthumb
     direction 0.707107 -6.34901e-011 0.707107   
     length 0.648463   
     axis -90 45 2.85299e-015   XYZ
    dof rx rz
    limits (-45.0 45.0)
           (-45.0 45.0)
  end
  begin
     id 24 
     name rclavicle
     direction -0.965946 0.258716 0.00371831   
     length 3.63667  
     axis 0 0 0   XYZ 
    dof ry rz
    limits (-10.0 20.0)
           (-20.0 0.0)
  end
  begin
     id 25 
     name rhumerus
     direction -1 -4.48966e-011 -1.78361e-028  
     length 6.28647   
     axis 180 30 90   XYZ
    dof rx ry rz
    limits (-90.0 60.0)
           (-90.0 90.0)
           (-90.0 90.0)
  end
  begin
     id 26 
     name rradius
     direction -1 -4.48961e-011 1.05248e-026   
     length 3.81645   
     axis 180 30 90   XYZ
    dof rx
    limits (-10.0 170.0)
  end
  begin
     id 27 
     name rwrist
     direction -1 -4.48979e-011 1.92422e-026   
     length 1.90822   
     axis -1.18182e-014 -90 -90   XYZ
    dof ry
    limits (-180.0 0.0)
  end
  begin
     id 28
     name rhand
     direction -1 -4.48937e-011 3.84844e-026   
     length 0.646185   
     axis -2.45563e-014 -90 -90   XYZ
    dof rx rz
    limits (-90.0 90.0)
           (-45.0 45.0)
  end
  begin
     id 29
     name rfingers
     direction -1 -4.48953e-011 7.69687e-026   
     length 0.520971   
     axis -4.91126e-014 -90 -90   XYZ
    dof rx
    limits (0.0 90.0)
  end
  begin
     id 30
     name rthumb
     direction -0.707107 -6.3494e-011 0.707107   
     length 0.748013   
     axis -90 -45 -2.85299e-015   XYZ
    dof rx rz
    limits (-45.0 45.0)
           (-45.0 45.0)
  end
:hierarchy
  begin
    root lhipjoint rhipjoint lowerback
    lhipjoint lfemur
    lfemur ltibia
    ltibia lfoot
    lfoot ltoes
    rhipjoint rfemur
    rfemur rtibia
    rtibia rfoot
    rfoot rtoes
    lowerback upperback
    upperback thorax
    thorax lowerneck lclavicle rclavicle
    lowerneck upperneck
    upperneck head
    lclavicle lhumerus
    lhumerus lradius
    lradius lwrist
    lwrist lhand lthumb
    lhand lfingers
    rclavicle rhumerus
    rhumerus rradius
    rradius rwrist
    rwrist rhand rthumb
    rhand rfingers
  end

#!OML:ASF H:\HAZMAT1\Patient Classification 1\Patient 3\Session 1\dancer.ASF
:FULLY-SPECIFIED
:DEGREES
163
upperback -1.738670 -7.449940 -0.144401
rfoot -10.686200 -21.658400
lradius 72.411400
lthumb 32.982800 37.058498
rradius 28.688200
lwrist 38.227402
rhand -14.143300 -15.443100
rhumerus -12.806300 -32.494099 -14.342500
lowerneck -5.137750 3.265490 4.711670
lhand 7.743170 10.054700
ltibia 31.374001
head 1.734180 2.043380 -1.081440
rwrist -19.888100
lfingers 7.125020
rtoes 5.163610
lowerback -0.370961 -5.580510 3.554950
rfingers 7.125020
lclavicle -0.000000 0.000000
upperneck 2.313600 4.071650 -1.288800
rfemur -43.479599 17.280899 8.000780
thorax -2.052080 -3.791560 -1.981560
rclavicle -0.000000 0.000000
rtibia 41.066101
lfoot -25.118999 6.532490
lhumerus 30.164900 -19.452200 27.139500
rthumb 11.990900 -45.079601
root 12.294400 19.104700 23.002100 374.618011 227.990997 -1080.969971
ltoes 6.911750
lfemur -16.095501 -18.902201 -17.447500
164
upperback -1.691860 -5.388480 -1.618530
rfoot -23.322901 -13.464700
lradius 72.432899
lthumb 33.348400 37.237598
rradius 30.938700
lwrist 38.039501
rhand -15.112300 -15.830500
rhumerus -10.013300 -35.057098 -17.415001
lowerneck -6.833960 1.823090 4.623450
lhand 8.127610 10.311500
ltibia 52.789700
head 1.691750 1.007570 -0.783654
rwrist -20.399900
lfingers 7.125020
rtoes -6.479520
lowerback 1.314580 -4.027850 2.398390
rfingers 7.125020
lclavicle 0.000000 0.000000
upperneck 1.515520 2.000940 -0.209850
rfemur -41.367599 -3.516450 21.147800
thorax -2.853080 -2.770690 -2.782450
rclavicle 0.000000 0.000000
rtibia 73.052002
lfoot -22.881599 1.694450
lhumerus 34.056702 -15.402200 25.986099
rthumb 11.056500 -45.519299
root 14.413800 18.305799 25.951500 377.037994 225.682999 -1081.579956
ltoes 8.517910
lfemur -42.359901 -7.182110 -19.670200
165
upperback -1.891910 -3.196900 -1.841660
rfoot -19.036200 -5.551520
lradius 71.626701
lthumb 32.862999 37.249199
rradius 30.969700
lwrist 37.185600
rhand -19.905701 -18.451401
rhumerus -5.147910 -35.769299 -21.638100
lowerneck -6.487210 0.959505 4.044160
lhand 7.617270 10.220200
ltibia 61.380001
head 1.697290 0.481443 -0.961227
rwrist -20.477699
lfingers 7.125020
rtoes -19.532700
lowerback -0.521250 -2.354610 3.022890
rfingers 7.125020
lclavicle -0.000000 -0.000000
upperneck 1.797810 0.963261 -0.963004
rfemur -2.292040 0.990617 19.321400
thorax -1.923030 -1.684420 -3.543130
rclavicle -0.000000 -0.000000
rtibia 51.423199
lfoot -15.035700 5.188320
lhumerus 34.170200 -14.995500 26.863800
rthumb 6.430820 -48.333801
root 16.695000 17.267401 28.363300 376.289001 224.192001 -1082.290039
ltoes 7.563310
lfemur -58.711399 -10.698700 -16.811001
166
upperback -2.672090 -4.344520 -2.856900
rfoot -36.196701 -26.642599
lradius 68.472603
lthumb 33.012299 36.779499
rradius 32.948002
lwrist 36.067001
rhand -19.517700 -19.003000
rhumerus -7.560200 -32.009899 -19.899401
lowerneck -4.387520 0.690495 2.897930
lhand 7.774170 9.781890
ltibia 46.833900
head 1.891890 0.397555 -0.371796
rwrist -20.516001
lfingers 7.125020
rtoes -2.243480
lowerback -1.283030 -3.136320 2.629110
rfingers 7.125020
lclavicle -0.000000 -0.000000
upperneck 3.635130 0.711363 0.316540
rfemur 3.834860 14.556900 24.889400
thorax -2.451150 -2.315000 -4.365120
rclavicle -0.000000 -0.000000
rtibia 19.130699
lfoot -9.875970 2.145310
lhumerus 33.303699 -14.246400 25.385000
rthumb 6.805410 -48.873600
root 20.033300 18.004700 30.775000 379.966003 226.893005 -1086.160034
ltoes 3.363840
lfemur -55.577702 -12.775900 -14.271400
167
upperback -3.264560 -5.247090 -3.197380
rfoot -42.235401 -25.964399
lradius 64.368698
lthumb 32.145699 36.641701
rradius 33.252499
lwrist 34.017601
rhand -18.942801 -19.205500
rhumerus -15.080600 -31.848200 -12.393100
lowerneck -5.537100 0.527945 2.750250
lhand 6.863490 9.465070
ltibia 57.716400
head 3.300270 0.261848 -0.374430
rwrist -22.796101
lfingers 7.125020
rtoes 7.694610
lowerback -2.424050 -3.749630 2.941380
rfingers 7.125020
lclavicle 0.000000 -0.000000
upperneck 7.208030 0.394162 0.275792
rfemur -12.282600 14.462900 23.113899
thorax -2.577590 -2.816540 -4.932140
rclavicle 0.000000 -0.000000
rtibia 37.546001
lfoot -23.020700 -2.898840
lhumerus 28.976900 -13.209300 22.719000
rthumb 7.360390 -49.057499
root 22.185400 18.110600 32.496201 379.263000 227.916000 -1087.640015
ltoes -2.598720
lfemur -29.250900 -14.460000 -20.710400
168
upperback -2.693380 -6.444800 -2.364520
rfoot -37.133701 -19.681700
lradius 56.224899
lthumb 30.994499 36.657101
rradius 31.384899
lwrist 27.136400
rhand -19.986300 -19.201200
rhumerus -21.632601 -32.344799 -10.902400
lowerneck -6.826540 -0.924719 1.194660
lhand 5.655000 9.254600
ltibia 43.302502
head 4.414210 -0.756072 0.750089
rwrist -21.549500
lfingers 7.125020
rtoes 6.410140
lowerback -0.540863 -4.722850 1.515720
rfingers 7.125020
lclavicle -0.000000 0.000000
upperneck 9.579040 -1.841450 3.191700
rfemur -23.600901 5.965730 24.833599
thorax -2.910440 -3.332530 -3.122990
rclavicle -0.000000 0.000000
rtibia 45.382599
lfoot -30.414200 1.295110
lhumerus 29.512899 -8.163650 22.954399
rthumb 6.353090 -49.085899
root 23.568399 18.228500 33.312000 378.843994 232.268997 -1085.569946
ltoes 6.665580
lfemur -25.293301 -19.906401 -15.982000
169
upperback -1.420510 -5.833740 -1.779100
rfoot -27.236799 -13.092400
lradius 47.269299
lthumb 28.790501 37.007401
rradius 31.887600
lwrist 21.743500
rhand -22.802799 -19.123100
rhumerus -20.546200 -31.498899 -13.582500
lowerneck -6.475240 -2.873980 -0.180174
lhand 3.345300 9.207840
ltibia 51.432701
head 4.430060 -2.087680 1.438970
rwrist -20.388500
lfingers 7.125020
rtoes -3.492050
lowerback 2.380870 -4.344570 1.320480
rfingers 7.125020
lclavicle -0.000000 -0.000000
upperneck 10.786400 -4.687920 5.496520
rfemur -42.471802 -0.781355 13.568800
thorax -3.110140 -2.969990 -2.256350
rclavicle -0.000000 -0.000000
rtibia 73.086502
lfoot -28.659300 -4.028130
lhumerus 23.923100 2.602350 21.639601
rthumb 3.633550 -49.071899
root 25.293900 17.849800 33.394501 378.191986 232.983994 -1080.550049
ltoes -1.905890
lfemur -38.740002 -11.819200 -7.249400
170
upperback -0.709409 -4.451270 -0.532887
rfoot -7.363280 -30.860001
lradius 40.210499
lthumb 24.944500 38.475399
rradius 34.912399
lwrist 15.304700
rhand -27.637501 -22.121000
rhumerus -19.305799 -30.002001 -14.671300
lowerneck -6.776790 -4.533610 -0.847880
lhand -0.674137 10.083400
ltibia 56.720901
head 5.389250 -3.249980 1.109090
rwrist -21.402201
lfingers 7.125020
rtoes 11.439300
lowerback 2.262760 -3.378470 2.201640
rfingers 7.125020
lclavicle -0.000000 0.000000
upperneck 13.536800 -6.980790 4.659970
rfemur -27.817600 5.436360 -12.580100
thorax -2.204490 -2.255770 -1.584400
rclavicle -0.000000 0.000000
rtibia 38.421200
lfoot -31.791000 1.210980
lhumerus 9.978000 18.106100 17.813400
rthumb -1.035810 -52.098202
root 27.124001 17.004400 31.922800 375.291992 232.809998 -1076.699951
ltoes -14.980400
lfemur -42.562801 -11.644900 4.432090
171
upperback -0.828982 -4.284950 -0.673283
rfoot -22.283701 -18.535299
lradius 38.091202
lthumb 14.435900 43.216202
rradius 34.199600
lwrist 12.246400
rhand -25.774599 -19.910101
rhumerus -21.746201 -27.948000 -17.526699
lowerneck -7.408190 -4.404820 -1.696850
lhand -11.606800 13.738200
ltibia 28.275600
head 6.589460 -3.306500 1.204150
rwrist -18.095301
lfingers 7.125020
rtoes -21.621401
lowerback 1.336770 -3.234510 2.204580
rfingers 7.125020
lclavicle -0.000000 -0.000000
upperneck 16.898600 -7.050330 4.717810
rfemur -25.989401 5.914470 0.412574
thorax -1.811570 -2.173280 -1.790360
rclavicle -0.000000 -0.000000
rtibia 35.848099
lfoot -19.743601 29.235201
lhumerus -5.760080 29.565399 10.548400
rthumb 0.763416 -49.888500
root 30.480499 17.333799 28.293100 370.471985 234.623001 -1072.719971
ltoes -4.921800
lfemur -27.394899 -28.985800 24.724400
